<mxfile host="app.diagrams.net" modified="2024-02-26T10:36:24.282Z" agent="Mozilla/5.0 (X11; Linux x86_64) AppleWebKit/537.36 (KHTML, like Gecko) Chrome/121.0.0.0 Safari/537.36" version="23.1.6" etag="DWFaFXXgtoauAW9eCGnI" type="github">
  <diagram name="Page-1" id="pdvTogc80M6uRx3vfZsP">
    <mxGraphModel>
      <root>
        <mxCell id="0" />
        <mxCell id="1" parent="0" />
      </root>
    </mxGraphModel>
  </diagram>
</mxfile>
